# xmcd CD database file
#
# Track frame offsets:
#	150
#	3790
#	25407
#	47510
#	69332
#	85587
#	106692
#	126782
#	150077
#	172492
#	192925
#	214745
#	219852
#	238325
#	256927
#	280885
#	299767
#
# Disc length: 4238 seconds
#
# Revision: 5
# Processed by: cddbd v1.5.1PL2 Copyright (c) Steve Scherf et al.
# Submitted via: jetAudio 5
#
DISCID=e9108c11
DTITLE=brandy - NEVER S-A-Y NEVER
DYEAR=1998
DGENRE=Pop
TTITLE0=Intro
TTITLE1=Angel In Disguise
TTITLE2=The Boy Is Mine(Duet with Monica)
TTITLE3=Learn The Hard Way
TTITLE4=Almost Doesn't Count
TTITLE5=Top Of The World(Featuring Mase)
TTITLE6=U Don't Know Me(Like U Used To)
TTITLE7=Never Say Never
TTITLE8=Truthfully
TTITLE9=Have You Ever?
TTITLE10=Put That On Everything
TTITLE11=In The Car Interlude
TTITLE12=Happy
TTITLE13=One Voice
TTITLE14=Tomorrow
TTITLE15=(Everything I Do)I Do It For You
TTITLE16=The Boy Is Mine(Duet with Monica)(Radio Edit without Intro)
EXTD=YEAR: 1998
EXTT0=
EXTT1=
EXTT2=
EXTT3=
EXTT4=
EXTT5=
EXTT6=
EXTT7=
EXTT8=
EXTT9=
EXTT10=
EXTT11=
EXTT12=
EXTT13=
EXTT14=
EXTT15=
EXTT16=
PLAYORDER=
